# xmcd
#
# Track frame offsets:
#	150
#	31831
#	45785
#	68419
#	95735
#	126222
#	156658
#	185832
#	207926
#	225780
#	248814
#	273191
#	293682
#	318796
#
# Disc length: 4604
#
# Revision: 2
# Processed by: cddbd v1.5.1PL0 Copyright (c) Steve Scherf et al.
# Submitted via: CDex 1.50
# Normalized: r1:TDELIM( - )
#
DISCID=b611fa0e
DTITLE=selectionne par Stephane Seroussi - Latin Vibe
DYEAR=2002
DGENRE=New Age
TTITLE0=Ralphi Rosario - salsalion
TTITLE1=De-Phazz - havana moon
TTITLE2=Jean Marie K and Olivier Fox - lolita
TTITLE3=Lost Child - sabor (Carlito's 70 remix)
TTITLE4=Jack Costanza - quimbara (Funky lowlies remix)
TTITLE5=noJazz - candela (club version)
TTITLE6=Spiritual Life - salsa de cuba (Dub)
TTITLE7=Damiano da Silva and Brazilian Studizel - tristeza a melanoolia
TTITLE8=The Boyz from Brazil - o noso amor (Armanda mix)
TTITLE9=Salatance - usled me oye
TTITLE10=Xemanuel - que es lo que lengo sin li (Dubfunk remix)
TTITLE11=Harry Morce Project - sick of dancing
TTITLE12=Raul Paz - mulala (Freak Experience remix)
TTITLE13=Thierry S. feat. Avispa - como es el amor
EXTD=YEAR: 2002
EXTT0=
EXTT1=
EXTT2=
EXTT3=
EXTT4=
EXTT5=
EXTT6=
EXTT7=
EXTT8=
EXTT9=
EXTT10=
EXTT11=
EXTT12=
EXTT13=
PLAYORDER=
